<svg width="262" height="83" viewBox="0 0 262 83" fill="none" xmlns="http://www.w3.org/2000/svg">
<rect x="0.5" y="47.5223" width="33.28" height="31.2" fill="#EFEFEF"/>
<rect x="52.4998" y="47.5223" width="33.28" height="31.2" fill="#EFEFEF"/>
<rect x="20.2598" y="30.8823" width="44.72" height="32.24" fill="#EFEFEF"/>
<rect x="0.5" y="30.8823" width="13.52" height="32.24" fill="#EFEFEF"/>
<rect x="72.2598" y="30.8823" width="13.52" height="32.24" fill="#EFEFEF"/>
<rect x="83.7" y="0.722305" width="15.6" height="35.36" transform="rotate(90 83.7 0.722305)" fill="#EFEFEF"/>
<rect x="33.7798" y="0.722305" width="18.72" height="30.16" fill="#EFEFEF"/>
<path d="M110.025 51.7223V39.1619H115.426C116.11 39.1619 116.696 39.29 117.184 39.5464C117.672 39.8027 118.051 40.1628 118.319 40.6267C118.588 41.0783 118.722 41.5971 118.722 42.183C118.722 42.8055 118.612 43.3182 118.393 43.721C118.173 44.1238 117.892 44.4412 117.55 44.6731C117.209 44.8928 116.861 45.0515 116.507 45.1491V45.259C116.751 45.2956 117.013 45.375 117.294 45.497C117.587 45.6191 117.862 45.7961 118.118 46.028C118.386 46.2599 118.6 46.5712 118.759 46.9618C118.93 47.3402 119.015 47.8101 119.015 48.3716C119.015 49.0064 118.863 49.5801 118.557 50.0927C118.264 50.5932 117.856 50.9899 117.331 51.2829C116.806 51.5758 116.208 51.7223 115.536 51.7223H110.025ZM112.112 49.9463H114.969C115.335 49.9463 115.658 49.8608 115.939 49.6899C116.22 49.519 116.433 49.2871 116.58 48.9942C116.739 48.7012 116.818 48.3838 116.818 48.0421C116.818 47.6515 116.733 47.3158 116.562 47.035C116.403 46.7543 116.183 46.5407 115.902 46.3942C115.622 46.2355 115.31 46.1562 114.969 46.1562H112.112V49.9463ZM112.112 44.4717H114.767C115.109 44.4717 115.414 44.3923 115.683 44.2337C115.951 44.075 116.159 43.8553 116.305 43.5745C116.464 43.2816 116.543 42.9581 116.543 42.6041C116.543 42.0426 116.403 41.6093 116.122 41.3041C115.854 40.9989 115.457 40.8464 114.932 40.8464H112.112V44.4717ZM128.181 51.9054C127.18 51.9054 126.381 51.6308 125.783 51.0815C125.184 50.52 124.885 49.6838 124.885 48.573V42.3661H127.028V48.1885C127.028 48.8965 127.192 49.4275 127.522 49.7815C127.864 50.1233 128.321 50.2942 128.895 50.2942C129.286 50.2942 129.634 50.2026 129.939 50.0195C130.244 49.8242 130.482 49.5618 130.653 49.2322C130.824 48.8904 130.909 48.512 130.909 48.097V42.3661H133.033V49.8913C133.033 50.0866 133.076 50.227 133.161 50.3125C133.247 50.3979 133.369 50.4406 133.528 50.4406C133.637 50.4406 133.747 50.4284 133.857 50.404C133.979 50.3796 134.101 50.3247 134.223 50.2392V51.5575C134.065 51.6674 133.851 51.7528 133.582 51.8139C133.326 51.8749 133.07 51.9054 132.813 51.9054C132.362 51.9054 132.014 51.8444 131.77 51.7223C131.538 51.6002 131.379 51.4294 131.294 51.2096C131.208 50.9899 131.147 50.7397 131.111 50.4589C130.94 50.7641 130.72 51.0265 130.452 51.2463C130.183 51.4538 129.86 51.6124 129.481 51.7223C129.103 51.8444 128.669 51.9054 128.181 51.9054ZM143.389 51.7223V43.9956H140.112V42.3661H145.513V51.7223H143.389ZM140.112 51.7223V50.1294H148.589V51.7223H140.112ZM143.353 40.4619V38.576H145.257V40.4619H143.353ZM157.883 51.9054C157.212 51.9054 156.596 51.7467 156.034 51.4294C155.473 51.0998 155.021 50.5932 154.679 49.9096C154.35 49.2139 154.185 48.3167 154.185 47.2181V47.0167C154.185 45.967 154.35 45.082 154.679 44.3618C155.021 43.6416 155.473 43.0985 156.034 42.7323C156.608 42.3661 157.243 42.183 157.938 42.183C158.536 42.183 159.055 42.2867 159.495 42.4942C159.946 42.7017 160.3 42.9825 160.557 43.3365V38.5393H162.681V51.7223H160.959L160.74 50.4589C160.471 50.9228 160.099 51.2829 159.623 51.5392C159.147 51.7833 158.567 51.9054 157.883 51.9054ZM158.433 50.4406C159.043 50.4406 159.55 50.2148 159.952 49.7632C160.355 49.3115 160.557 48.6219 160.557 47.6942V46.3942C160.557 45.4665 160.355 44.7768 159.952 44.3252C159.55 43.8736 159.043 43.6477 158.433 43.6477C157.822 43.6477 157.316 43.8797 156.913 44.3435C156.522 44.7952 156.327 45.4787 156.327 46.3942V47.6759C156.327 48.6036 156.522 49.2993 156.913 49.7632C157.316 50.2148 157.822 50.4406 158.433 50.4406ZM172.67 51.7223V40.1506H169.375V38.521H174.776V51.7223H172.67ZM169.375 51.7223V50.1294H177.852V51.7223H169.375ZM188.135 51.9054C187.476 51.9054 186.859 51.8078 186.286 51.6124C185.724 51.4049 185.23 51.0815 184.803 50.642C184.388 50.2026 184.058 49.635 183.814 48.9392C183.582 48.2313 183.466 47.3768 183.466 46.3759V44.5266C183.466 43.5257 183.582 42.6712 183.814 41.9633C184.046 41.2553 184.375 40.6816 184.803 40.2421C185.23 39.8027 185.73 39.4853 186.304 39.29C186.89 39.0825 187.531 38.9788 188.227 38.9788H188.574C189.197 38.9788 189.777 39.0703 190.314 39.2534C190.863 39.4365 191.345 39.7173 191.76 40.0957C192.187 40.4619 192.517 40.9379 192.749 41.5238C192.993 42.0975 193.115 42.7811 193.115 43.5745H190.991C190.991 42.9398 190.888 42.4149 190.68 41.9999C190.472 41.5849 190.173 41.2736 189.783 41.0661C189.404 40.8464 188.934 40.7365 188.373 40.7365C187.873 40.7365 187.427 40.8342 187.036 41.0295C186.646 41.2248 186.335 41.5665 186.103 42.0548C185.883 42.5309 185.773 43.2022 185.773 44.0689V46.797C185.773 47.4439 185.84 47.9871 185.974 48.4266C186.109 48.8538 186.292 49.1956 186.524 49.4519C186.768 49.696 187.049 49.873 187.366 49.9829C187.683 50.0927 188.025 50.1477 188.391 50.1477C188.867 50.1477 189.307 50.0683 189.71 49.9096C190.112 49.7388 190.43 49.4458 190.662 49.0308C190.906 48.6036 191.028 48.0115 191.028 47.2547V46.6139H188.08V45.0393H193.115V49.342C193.115 49.8547 193.127 50.3003 193.152 50.6787C193.176 51.0571 193.207 51.4049 193.243 51.7223H191.943L191.559 50.1843C191.241 50.7458 190.784 51.173 190.186 51.466C189.588 51.7589 188.953 51.9054 188.281 51.9054H188.135ZM202.299 51.9054C201.299 51.9054 200.499 51.6308 199.901 51.0815C199.303 50.52 199.004 49.6838 199.004 48.573V42.3661H201.146V48.1885C201.146 48.8965 201.311 49.4275 201.64 49.7815C201.982 50.1233 202.44 50.2942 203.014 50.2942C203.404 50.2942 203.752 50.2026 204.057 50.0195C204.362 49.8242 204.6 49.5618 204.771 49.2322C204.942 48.8904 205.028 48.512 205.028 48.097V42.3661H207.152V49.8913C207.152 50.0866 207.194 50.227 207.28 50.3125C207.365 50.3979 207.487 50.4406 207.646 50.4406C207.756 50.4406 207.866 50.4284 207.975 50.404C208.098 50.3796 208.22 50.3247 208.342 50.2392V51.5575C208.183 51.6674 207.969 51.7528 207.701 51.8139C207.444 51.8749 207.188 51.9054 206.932 51.9054C206.48 51.9054 206.132 51.8444 205.888 51.7223C205.656 51.6002 205.498 51.4294 205.412 51.2096C205.327 50.9899 205.266 50.7397 205.229 50.4589C205.058 50.7641 204.838 51.0265 204.57 51.2463C204.301 51.4538 203.978 51.6124 203.599 51.7223C203.221 51.8444 202.788 51.9054 202.299 51.9054ZM217.508 51.7223V43.9956H214.23V42.3661H219.632V51.7223H217.508ZM214.23 51.7223V50.1294H222.708V51.7223H214.23ZM217.471 40.4619V38.576H219.375V40.4619H217.471ZM232.002 51.9054C231.33 51.9054 230.714 51.7467 230.152 51.4294C229.591 51.0998 229.139 50.5932 228.798 49.9096C228.468 49.2139 228.303 48.3167 228.303 47.2181V47.0167C228.303 45.967 228.468 45.082 228.798 44.3618C229.139 43.6416 229.591 43.0985 230.152 42.7323C230.726 42.3661 231.361 42.183 232.057 42.183C232.655 42.183 233.174 42.2867 233.613 42.4942C234.065 42.7017 234.419 42.9825 234.675 43.3365V38.5393H236.799V51.7223H235.078L234.858 50.4589C234.59 50.9228 234.217 51.2829 233.741 51.5392C233.265 51.7833 232.685 51.9054 232.002 51.9054ZM232.551 50.4406C233.161 50.4406 233.668 50.2148 234.071 49.7632C234.474 49.3115 234.675 48.6219 234.675 47.6942V46.3942C234.675 45.4665 234.474 44.7768 234.071 44.3252C233.668 43.8736 233.161 43.6477 232.551 43.6477C231.941 43.6477 231.434 43.8797 231.031 44.3435C230.641 44.7952 230.445 45.4787 230.445 46.3942V47.6759C230.445 48.6036 230.641 49.2993 231.031 49.7632C231.434 50.2148 231.941 50.4406 232.551 50.4406ZM246.789 51.7223V40.1506H243.493V38.521H248.894V51.7223H246.789ZM243.493 51.7223V50.1294H251.97V51.7223H243.493ZM118.667 76.8322C118.325 76.8322 118.002 76.7711 117.697 76.6491C117.404 76.5148 117.166 76.2768 116.983 75.935C116.812 75.5932 116.726 75.105 116.726 74.4702C116.726 73.9331 116.665 73.4815 116.543 73.1153C116.433 72.7369 116.281 72.4378 116.086 72.2181C115.902 71.9862 115.689 71.8153 115.445 71.7055C115.201 71.5956 114.95 71.5407 114.694 71.5407H112.241V76.7223H110.025V64.1619H115.61C116.293 64.1619 116.903 64.3023 117.44 64.583C117.99 64.8515 118.417 65.2299 118.722 65.7182C119.04 66.2065 119.198 66.7863 119.198 67.4576C119.198 68.2388 118.997 68.9163 118.594 69.49C118.191 70.0515 117.66 70.3994 117.001 70.5336V70.6252C117.44 70.7473 117.801 70.9609 118.081 71.266C118.374 71.5712 118.594 71.9435 118.74 72.3829C118.887 72.8101 118.96 73.2679 118.96 73.7561C118.96 74.574 119.027 75.1477 119.162 75.4772C119.296 75.8068 119.54 76.0204 119.894 76.1181V76.6308C119.735 76.704 119.546 76.7528 119.326 76.7772C119.119 76.8139 118.899 76.8322 118.667 76.8322ZM112.241 69.8013H114.987C115.646 69.8013 116.147 69.6121 116.488 69.2337C116.83 68.843 117.001 68.3609 117.001 67.7872C117.001 67.2135 116.836 66.7618 116.507 66.4323C116.177 66.0905 115.707 65.9196 115.097 65.9196H112.241V69.8013ZM124.849 76.7223V64.1619H130.543C131.214 64.1619 131.819 64.3267 132.356 64.6562C132.905 64.9736 133.344 65.4069 133.674 65.9562C134.004 66.4933 134.168 67.0914 134.168 67.7506V67.9703C134.168 68.6294 134.004 69.2398 133.674 69.8013C133.344 70.3505 132.905 70.79 132.356 71.1195C131.819 71.4491 131.214 71.6139 130.543 71.6139H127.064V76.7223H124.849ZM127.064 69.8379H129.975C130.342 69.8379 130.665 69.7524 130.946 69.5815C131.239 69.4106 131.471 69.1787 131.642 68.8858C131.813 68.5928 131.898 68.2571 131.898 67.8787C131.898 67.5248 131.813 67.2013 131.642 66.9083C131.483 66.6032 131.257 66.3651 130.964 66.1942C130.683 66.0112 130.354 65.9196 129.975 65.9196H127.064V69.8379ZM143.774 76.9054C143.09 76.9054 142.455 76.8078 141.87 76.6124C141.296 76.4049 140.789 76.0815 140.35 75.642C139.923 75.2026 139.587 74.635 139.343 73.9392C139.111 73.2313 138.995 72.3768 138.995 71.3759V69.5266C138.995 68.5257 139.117 67.6712 139.361 66.9633C139.605 66.2553 139.941 65.6816 140.368 65.2421C140.808 64.8027 141.314 64.4853 141.888 64.29C142.462 64.0825 143.084 63.9788 143.755 63.9788H144.085C145.025 63.9788 145.831 64.168 146.502 64.5464C147.185 64.9126 147.71 65.468 148.077 66.2126C148.443 66.9572 148.626 67.8909 148.626 69.0139H146.484C146.484 68.2571 146.404 67.6407 146.246 67.1647C146.087 66.6764 145.818 66.3163 145.44 66.0844C145.062 65.8525 144.543 65.7365 143.884 65.7365C143.517 65.7365 143.176 65.7914 142.858 65.9013C142.553 66.0112 142.285 66.1943 142.053 66.4506C141.821 66.6947 141.638 67.0304 141.503 67.4576C141.369 67.8848 141.302 68.4219 141.302 69.0689V71.797C141.302 72.4439 141.369 72.9871 141.503 73.4266C141.638 73.8538 141.821 74.1956 142.053 74.4519C142.285 74.696 142.553 74.873 142.858 74.9829C143.176 75.0927 143.517 75.1477 143.884 75.1477C144.872 75.1477 145.562 74.8913 145.953 74.3787C146.355 73.8538 146.557 73.0238 146.557 71.8886H148.626C148.626 72.9627 148.443 73.8721 148.077 74.6167C147.71 75.3613 147.192 75.9289 146.52 76.3195C145.849 76.7101 145.043 76.9054 144.103 76.9054H143.774Z" fill="black"/>
</svg>
